<svg width="484" height="814" viewBox="0 0 484 814" fill="none" xmlns="http://www.w3.org/2000/svg">
<g filter="url(#filter0_d_5839_3847)">
<g filter="url(#filter1_d_5839_3847)">
<rect x="12" y="8" width="460" height="790" rx="35" fill="#F78104"/>
</g>
<path d="M27.9717 53C27.9717 39.1929 39.1646 28 52.9717 28H431.027C444.834 28 456.027 39.1929 456.027 53V753C456.027 766.807 444.834 778 431.027 778H52.9717C39.1646 778 27.9717 766.807 27.9717 753V53Z" fill="#FCFDFC"/>
<path d="M12 646C12 637.716 18.7157 631 27 631H28.9445C37.2287 631 43.9444 637.716 43.9444 646V646C43.9444 654.284 37.2287 661 28.9444 661H27C18.7157 661 12 654.284 12 646V646Z" fill="#F78104"/>
<path d="M440.056 646C440.056 637.716 446.771 631 455.056 631H457C465.284 631 472 637.716 472 646V646C472 654.284 465.284 661 457 661H455.056C446.771 661 440.056 654.284 440.056 646V646Z" fill="#F78104"/>
<line x1="43.9443" y1="645.25" x2="440.055" y2="645.25" stroke="#121212" stroke-width="1.5" stroke-dasharray="10 10"/>
</g>
<defs>
<filter id="filter0_d_5839_3847" x="0" y="0" width="484" height="814" filterUnits="userSpaceOnUse" color-interpolation-filters="sRGB">
<feFlood flood-opacity="0" result="BackgroundImageFix"/>
<feColorMatrix in="SourceAlpha" type="matrix" values="0 0 0 0 0 0 0 0 0 0 0 0 0 0 0 0 0 0 127 0" result="hardAlpha"/>
<feOffset dy="4"/>
<feGaussianBlur stdDeviation="6"/>
<feComposite in2="hardAlpha" operator="out"/>
<feColorMatrix type="matrix" values="0 0 0 0 0 0 0 0 0 0 0 0 0 0 0 0 0 0 1 0"/>
<feBlend mode="normal" in2="BackgroundImageFix" result="effect1_dropShadow_5839_3847"/>
<feBlend mode="normal" in="SourceGraphic" in2="effect1_dropShadow_5839_3847" result="shape"/>
</filter>
<filter id="filter1_d_5839_3847" x="8" y="8" width="468" height="798" filterUnits="userSpaceOnUse" color-interpolation-filters="sRGB">
<feFlood flood-opacity="0" result="BackgroundImageFix"/>
<feColorMatrix in="SourceAlpha" type="matrix" values="0 0 0 0 0 0 0 0 0 0 0 0 0 0 0 0 0 0 127 0" result="hardAlpha"/>
<feOffset dy="4"/>
<feGaussianBlur stdDeviation="2"/>
<feComposite in2="hardAlpha" operator="out"/>
<feColorMatrix type="matrix" values="0 0 0 0 0 0 0 0 0 0 0 0 0 0 0 0 0 0 0.25 0"/>
<feBlend mode="normal" in2="BackgroundImageFix" result="effect1_dropShadow_5839_3847"/>
<feBlend mode="normal" in="SourceGraphic" in2="effect1_dropShadow_5839_3847" result="shape"/>
</filter>
</defs>
</svg>
